<?xml version="1.0" encoding="utf-8"?>
<!-- Generator: Adobe Illustrator 18.0.0, SVG Export Plug-In . SVG Version: 6.00 Build 0)  -->
<!DOCTYPE svg PUBLIC "-//W3C//DTD SVG 1.1//EN" "http://www.w3.org/Graphics/SVG/1.1/DTD/svg11.dtd">
<svg version="1.1" id="Kind_logo" xmlns="http://www.w3.org/2000/svg" xmlns:xlink="http://www.w3.org/1999/xlink" x="0px" y="0px"
	 viewBox="0 0 306.2 207.1" enable-background="new 0 0 306.2 207.1" xml:space="preserve">
<g id="Layer_5_copy_2">
	<g>
		<path d="M299.4,22.2c-4.3,0-5.7,0-10,0c-4.2,0-6,1.5-6.7,5.9c-0.4,2.5-4,34.7-5.1,44.6c-2.7-4-8.2-7.9-13.6-9.3
			c-10.6-2.7-23.3,3-30,13.6c-8.8,13.9-10.2,29.5-8.4,45c0.2,1.4,0.6,3.6,1.3,5.4c-2,2.4-4.8,4.2-8.4,5.3
			c-7.6,2.2-11.3-0.4-11.1-8.4c0.1-4.4,2.1-21.2,2.3-23.2c2.7-19.6,2.5-21.3,1.5-26.4c-1.4-7.1-6.1-11.5-13.4-12.1
			c-6.3-0.5-13,2-18.2,6.2c-6.5,5.3-9.7,9.3-15.1,16.4c0.3-3.7,1.6-16.3,1.6-17.5c0-3.2-2-4.5-5.3-4.5c-1.4,0-8.8,0-10.1,0
			c-4.5,0-6.5,2-7,6.7c-0.2,1.7-3.4,33.4-4.7,47.3c-1,6.8-4.7,13.2-12.8,15.5c-7.6,2.2-11.3-0.4-11.1-8.4c0.1-4.4,5.2-48.9,5.9-55.5
			c0.5-4-1.6-5.5-5.3-5.5c-3.4,0-6.8,0-10.1,0c-4.5,0-6.5,2-7,6.7c0,0-5.5,43.2-5.7,54.6c-0.2,11.2,3.4,21.9,19.2,22.1
			c9,0.1,18.1-4.2,25.4-10.9c-0.1,0.8-0.1,1.5-0.2,2.3c-0.8,8.4-0.9,7.7,7.3,7.9c2.3,0.1,5,0.2,7.3,0c5.2-0.4,6.6-1.1,7.1-7.1
			c0.8-8.8,1.7-17.7,3.1-26.4c1.9-11.7,6.6-22.3,16.1-29.9c2.1-1.6,5.5-2.9,8.3-1.7c2.6,1.2,2.8,5,2.5,7.5c0,0.2-1.6,10.5-2.2,15.2
			c-1,6.3-1.7,12-1.8,22.4l0.1-0.1c0.1,10.7,4,20.6,19.2,20.8c9.1,0.1,18.4-4.3,25.8-11.2c0.4,0.8,0.8,1.5,1.2,2.1
			c6.5,10.6,23.4,11.5,32,4.7c2.4-1.9,5.7-4.9,7.4-7.3c-0.3,2.9-0.5,4.5-0.6,6.2c-0.1,3.6,1.7,4.9,4.9,4.9c5.3,0,8,0,13.4,0
			c2.8,0,4.5-1.5,4.9-4.7c1.5-14,11.7-103.8,12.5-112.9C306,23.5,304.2,22.2,299.4,22.2z M272,122c-2.3,4.5-6.8,8.6-10.3,10.1
			c-5,2.1-9-0.1-11.1-5.4c-3-7.7-3.2-17.2-2.4-23.7c1-7.9,3.7-14.5,7-18.6c5.6-6.8,15.6-8.4,20.9,0.9
			C275.3,93.2,273.3,110.6,272,122z" fill="#084059"/>
		<circle cx="115.3" cy="33.5" r="11.7" fill="#084059"/>
		<path d="M230.1,168.7c-1.3-1.2-3.3-0.6-6.4,2.7c-10.2,10.6-22,16.9-36.1,20.1c-26.6,6.1-60.2-0.7-87.3-26.5
			c-17.1-16.2-33.5-45.1-41-79.7c14.8-9.5,25.4-20.7,30.5-28.3c6.6-9.8,0.8-18.9-9.9-21.5c-0.6-0.1-1.1-0.2-1.5-0.1
			c-0.5,0.1-0.9,0.6-1.1,1C64.6,55.4,50.5,71.4,35.3,81.2l8.2-74.7c0.4-3.2-0.8-5.4-4.3-5.5C34.2,0.8,29.1,0.6,24,1
			c-3.4,0.2-5.6,2-6,6.1C16.2,25.6,2.2,151.7,1,162.4c-0.4,3.2,0.8,5.4,4.3,5.5c5.1,0.1,10.2,0.3,15.2-0.1c3.4-0.2,5.6-2,6-6.1
			l6.6-60c11.5,37.8,34.9,66.7,57.3,82.6c23,16.3,56.9,26.3,87.2,20.6c21.9-4.1,41.6-15.2,51.3-29.2
			C231.8,171.6,231.3,169.8,230.1,168.7z M33.8,97.8L33.5,98l0-0.1C33.6,97.9,33.7,97.9,33.8,97.8z M33.5,97.9
			C33.5,97.9,33.5,97.9,33.5,97.9L33.5,97.9L33.5,97.9L33.5,97.9z" fill="#084059"/>
	</g>
</g>
</svg>
